PathFileType	4	(X/Y/Z)	C:\Users\Basilio\Documents\Thesis Gigler\squatting_fais\c3dfiles\038\SJ_pre2\markers_experimental.trc
DataRate	CameraRate	NumFrames	NumMarkers	Units	OrigDataRate	OrigDataStartFrame	OrigNumFrames
200.000000	200.000000	4	61	mm	200.000000	231	1854
Frame#	Time	FHD			LBHD			RBHD			C7			T10			LSHO			LUUPA			LMUPA			LDUPA			LLEP			LMEP			LRAD			LUL			LRFIN			RSHO			RUPA1			RMUPA			RDUPA			RLEP			RMEP			RRAD			RUL			RUFIN			LASI			RASI			USACR			LSACR			RSACR			LTHI1			LTHI2			LTHI3			LTHI4			LLFC			LMFC			LTIB1			LTIB2			LTIB3			LTIB4			LLMAL			LMMAL			LHEE			LMT1			LMT2			LMT5			RTHI			RTHI2			RTHI3			RTHI4			RLFC			RMFC			RTIB1			RTIB2			RTIB3			RTIB4			RLMAL			RMMAL			RHEE			RMT1			RMT2			RMT5			CLAV			
		X1	Y1	Z1	X2	Y2	Z2	X3	Y3	Z3	X4	Y4	Z4	X5	Y5	Z5	X6	Y6	Z6	X7	Y7	Z7	X8	Y8	Z8	X9	Y9	Z9	X10	Y10	Z10	X11	Y11	Z11	X12	Y12	Z12	X13	Y13	Z13	X14	Y14	Z14	X15	Y15	Z15	X16	Y16	Z16	X17	Y17	Z17	X18	Y18	Z18	X19	Y19	Z19	X20	Y20	Z20	X21	Y21	Z21	X22	Y22	Z22	X23	Y23	Z23	X24	Y24	Z24	X25	Y25	Z25	X26	Y26	Z26	X27	Y27	Z27	X28	Y28	Z28	X29	Y29	Z29	X30	Y30	Z30	X31	Y31	Z31	X32	Y32	Z32	X33	Y33	Z33	X34	Y34	Z34	X35	Y35	Z35	X36	Y36	Z36	X37	Y37	Z37	X38	Y38	Z38	X39	Y39	Z39	X40	Y40	Z40	X41	Y41	Z41	X42	Y42	Z42	X43	Y43	Z43	X44	Y44	Z44	X45	Y45	Z45	X46	Y46	Z46	X47	Y47	Z47	X48	Y48	Z48	X49	Y49	Z49	X50	Y50	Z50	X51	Y51	Z51	X52	Y52	Z52	X53	Y53	Z53	X54	Y54	Z54	X55	Y55	Z55	X56	Y56	Z56	X57	Y57	Z57	X58	Y58	Z58	X59	Y59	Z59	X60	Y60	Z60	X61	Y61	Z61	

232	1.155	-212.1348571777344	1756.210571289063	-915.583435058594	-351.1660156250001	1670.948364257813	-980.1660156250002	-344.1598205566407	1660.282348632813	-834.7969360351565	-385.8135375976564	1521.196533203125	-904.5295410156252	-414.3285522460939	1232.899169921875	-904.8981933593752	-304.6146850585938	1515.985961914063	-1083.107299804688	-344.7450866699219	1349.629760742188	-1257.262817382813	-302.2086486816407	1323.549194335938	-1247.08544921875	-327.2140502929688	1291.536376953125	-1292.3095703125	-311.1482849121094	1230.830810546875	-1310.641845703125	-386.6390380859376	1203.177124023438	-1292.769653320313	-296.5918579101563	989.3189086914065	-1141.501098632813	-249.6412048339844	962.197448730469	-1189.679931640625	-260.3930358886719	982.0562133789065	-1083.95166015625	-278.5261840820313	1501.1943359375	-747.3483886718751	-275.8067626953126	1340.510986328125	-585.8577270507814	-254.6303710937501	1299.248291015625	-601.6525878906251	-273.4509582519532	1283.09228515625	-546.9708862304689	-263.1694335937501	1209.425659179688	-522.9614868164064	-345.2533569335938	1192.23095703125	-523.4727783203126	-280.6407470703126	982.3259277343752	-681.4855346679689	-226.9807586669922	953.3171997070315	-642.9757080078126	-236.8825988769532	972.583679199219	-738.3742675781251	-245.1900329589844	1041.890502929688	-1035.542846679688	-239.4962005615235	1049.621459960938	-781.2786254882815	-411.2655029296876	1089.440063476563	-903.512390136719	-424.8857727050782	1060.4931640625	-929.546081542969	-421.7341308593751	1061.49072265625	-874.4564208984377	-325.6316223144532	729.6820068359376	-1112.285522460938	-303.4006042480469	647.9208374023439	-1116.21484375	-255.5321960449219	646.3403320312501	-1102.49169921875	-335.2319030761719	599.7667236328126	-1098.6240234375	-336.6642761230469	537.7954711914064	-1098.41259765625	-303.3982849121094	509.7296447753907	-985.8757324218752	-313.2091369628907	338.2076416015626	-1063.57421875	-371.4004211425782	311.0354309082032	-1126.809692382813	-333.3843688964844	299.5872497558594	-1104.360961914063	-348.0606689453126	216.3246002197266	-1086.156860351563	-446.5918579101564	88.53074645996095	-1113.076171875	-396.8728027343751	96.17873382568362	-1047.715698242188	-485.2767944335939	44.20375442504884	-1061.30908203125	-275.3349914550782	47.8272933959961	-1094.73193359375	-280.2113342285157	48.94519042968751	-1145.454467773438	-327.9352722167969	29.23252487182618	-1185.619140625	-329.4006042480469	786.162048339844	-715.7971801757814	-301.9564514160157	725.2600097656251	-706.9936523437501	-268.6685180664063	722.7931518554689	-707.6954956054689	-340.2075500488282	650.3251342773439	-724.8847045898439	-343.0130615234376	512.1152954101564	-727.0010986328126	-326.3308410644532	502.8960876464845	-845.4998779296877	-310.5665588378907	332.7212524414063	-734.8287963867189	-395.7027587890626	260.8182983398438	-701.5891723632814	-348.4734191894532	259.9677734375001	-707.3549804687501	-338.1157531738282	206.8796844482422	-730.9146728515626	-415.6109008789064	92.64402770996095	-704.6001586914064	-374.1867065429688	91.84869384765626	-777.6455078125002	-463.1003417968751	41.30270385742188	-771.9201660156252	-251.5657501220704	47.91960144042969	-715.1091308593751	-264.9094543457032	53.23459243774415	-670.0114746093751	-316.2312316894532	34.28212356567384	-634.0415649414064	-247.3230438232422	1473.763305664063	-918.5661621093752	
233	1.16	-212.7796020507813	1756.325805664063	-915.6223754882815	-351.3871154785157	1670.667236328125	-980.2463378906252	-344.3184509277344	1660.080078125	-834.8293457031252	-385.6597595214845	1521.150756835938	-904.4900512695315	-414.3460693359376	1232.880615234375	-904.7896118164065	-304.4094238281251	1515.87744140625	-1083.135009765625	-344.4755554199219	1349.556274414063	-1257.292358398438	-302.0441894531251	1323.458618164063	-1247.05908203125	-327.1004638671876	1291.531982421875	-1292.3486328125	-310.9797058105469	1230.771240234375	-1310.556274414063	-386.4602966308595	1203.194946289063	-1292.742065429688	-297.1693115234376	989.258239746094	-1141.708618164063	-249.715072631836	962.0615234375002	-1189.583129882813	-260.3826599121094	981.9187622070315	-1083.922607421875	-278.3780212402344	1501.210571289063	-747.3498535156251	-275.6066284179688	1340.452026367188	-585.8959960937501	-254.4050598144532	1299.19775390625	-601.7266845703126	-273.1930541992188	1283.090942382813	-546.9484863281251	-263.0003051757813	1209.3857421875	-523.0631713867189	-345.0298767089844	1192.126098632813	-523.4535522460939	-280.5680847167969	982.375427246094	-681.5344848632814	-226.8375854492188	953.321960449219	-643.0563964843751	-236.7358703613282	972.6330566406252	-738.4311523437501	-245.178695678711	1041.906860351563	-1035.510864257813	-239.3540954589844	1049.564575195313	-781.2849121093752	-411.1350097656251	1089.458618164063	-903.4622192382815	-424.7705078125001	1060.458129882813	-929.4839477539065	-421.5724182128907	1061.424560546875	-874.3663330078127	-325.6132202148438	729.6445922851564	-1112.276000976563	-303.3722839355469	647.9462280273439	-1116.2080078125	-255.5495147705079	646.3441162109376	-1102.513427734375	-335.1820068359376	599.7521972656251	-1098.628784179688	-336.6681518554688	537.7507324218751	-1098.471435546875	-303.2191162109376	509.6675720214845	-985.8793945312502	-313.1467590332032	338.2190551757813	-1063.597412109375	-371.3128356933594	310.9986877441407	-1126.758544921875	-333.3659973144532	299.6049499511719	-1104.317504882813	-348.0596313476563	216.3400573730469	-1086.18408203125	-446.6103515625001	88.54482269287111	-1113.04296875	-396.3250122070314	96.55175781250003	-1047.347534179688	-485.2766418457032	44.20310592651368	-1061.269165039063	-275.3580627441407	47.80125808715821	-1094.75537109375	-280.1994628906251	48.92351150512697	-1145.440673828125	-327.9232177734376	29.23412322998048	-1185.633911132813	-329.2767639160157	786.1575317382815	-715.8133544921876	-301.7950134277344	725.2544555664064	-706.9805297851564	-268.4752197265626	722.7379760742189	-707.7332763671876	-340.1224975585938	650.3375244140626	-724.8571166992189	-342.9089050292969	512.0792846679689	-726.9512329101564	-326.2720336914063	502.9168395996095	-845.5509033203127	-310.4757995605469	332.6772460937501	-734.8703613281251	-395.651092529297	260.8247070312501	-701.5849609375001	-348.4779968261719	259.9249267578126	-707.3627319335939	-338.0748901367188	206.9014282226563	-730.9049072265626	-415.6326293945314	92.67160034179689	-704.5938720703126	-374.2048339843751	91.82252502441408	-777.6396484375002	-463.1384887695314	41.33751678466798	-771.9338378906252	-251.5767974853516	47.92208862304688	-715.0944824218751	-264.9129943847657	53.23862457275392	-670.0153198242189	-316.2315368652344	34.28363800048829	-634.0396728515626	-247.3058471679688	1473.805053710938	-918.5379638671877	
234	1.165	-213.3578186035157	1756.65234375	-915.8169555664065	-351.6580505371094	1670.347900390625	-980.3037719726565	-344.4278869628907	1659.92919921875	-834.911560058594	-385.6087036132814	1521.125122070313	-904.4678344726565	-414.2688598632814	1232.900268554688	-904.7297363281252	-304.3493041992188	1515.849487304688	-1083.1884765625	-344.2117309570313	1349.526245117188	-1257.305297851563	-301.7598266601563	1323.425048828125	-1247.126953125	-326.9412536621094	1291.48046875	-1292.346801757813	-310.8519592285157	1230.665405273438	-1310.509521484375	-386.3004150390626	1203.140991210938	-1292.728881835938	-297.2204895019532	989.1495361328127	-1141.675659179688	-249.5130157470704	961.7578735351565	-1189.419921875	-260.4078369140626	981.7947998046877	-1083.917236328125	-278.2923889160157	1501.2197265625	-747.3114624023439	-275.4339294433594	1340.509399414063	-585.8847656250001	-254.1807708740235	1299.164672851563	-601.8059082031251	-272.9303588867188	1282.899047851563	-547.0114135742189	-262.7336425781251	1209.363525390625	-523.1465454101564	-344.7626953125001	1192.173706054688	-523.4061889648439	-280.3993835449219	982.3496093750002	-681.5218505859376	-226.6723632812501	953.2849731445315	-643.1047973632814	-236.6074218750001	972.631042480469	-738.4348144531251	-245.1492309570313	1041.893310546875	-1035.5009765625	-239.2595977783204	1049.550537109375	-781.2617187500002	-411.0193176269532	1089.455444335938	-903.3936157226565	-424.7746582031251	1060.487670898438	-929.3892822265627	-421.4963684082032	1061.399536132813	-874.3291625976565	-325.6303100585938	729.6483154296876	-1112.278442382813	-303.4084777832032	647.9874267578126	-1116.213256835938	-255.4911804199219	646.3187255859376	-1102.574951171875	-335.2312011718751	599.7521362304689	-1098.625732421875	-336.6686401367188	537.8123168945314	-1098.461181640625	-303.1982421875001	509.6346130371095	-985.908142089844	-313.1697692871094	338.1523742675782	-1063.60986328125	-371.3785705566407	311.0331726074219	-1126.786865234375	-333.3319702148438	299.6733093261719	-1104.348876953125	-348.0323486328126	216.282211303711	-1086.188842773438	-446.6072387695314	88.56967163085939	-1113.035522460938	-396.4504394531251	96.46429443359378	-1047.50732421875	-485.2622985839845	44.18713378906251	-1061.300048828125	-275.2189636230469	47.94472885131837	-1094.798583984375	-280.2218933105469	48.92137527465822	-1145.429077148438	-328.3265686035157	29.53795242309571	-1185.635375976563	-329.1036376953126	786.2127685546877	-715.7672119140626	-301.1902465820313	725.7087402343751	-706.4144287109376	-268.2442932128907	722.7239379882814	-707.7230834960939	-339.9417114257813	650.3237304687501	-724.8121337890626	-342.8148803710938	512.0919189453126	-726.9780883789064	-326.2047729492188	502.9023742675782	-845.509460449219	-310.4375610351563	332.6331176757813	-734.8761596679689	-395.6502380371095	260.8275146484376	-701.5452270507814	-348.4263000488282	259.9175720214844	-707.3614501953126	-338.0287170410157	206.915512084961	-730.8921508789064	-415.5600585937501	92.67628479003908	-704.5769042968751	-374.2300415039063	91.83814239501955	-777.6632080078127	-463.1050109863282	41.30542755126954	-771.9185180664065	-251.5276031494141	47.90649032592774	-715.0982055664064	-264.8844604492188	53.22724533081056	-670.0397338867189	-316.2227478027344	34.27764511108399	-634.0323486328126	-247.1858825683594	1473.734130859375	-918.5537109375002	
235	1.17	-213.9132232666016	1756.986572265625	-915.7851562500002	-351.8404541015626	1670.07177734375	-980.3762207031252	-344.5584411621094	1659.447631835938	-834.8413696289065	-385.5023803710939	1521.097412109375	-904.4719848632815	-414.2688598632814	1232.908569335938	-904.6362304687502	-304.2279052734376	1515.825073242188	-1083.220703125	-344.0374450683594	1349.5361328125	-1257.267211914063	-301.6030273437501	1323.377563476563	-1247.076538085938	-326.7431640625001	1291.399291992188	-1292.342895507813	-310.6501770019532	1230.57666015625	-1310.406005859375	-386.011932373047	1203.0654296875	-1292.681030273438	-297.1446838378907	989.040222167969	-1141.548583984375	-249.7411346435547	961.8277587890627	-1189.429443359375	-260.4531860351563	981.6954345703127	-1083.860107421875	-278.1986389160157	1501.21142578125	-747.2516479492189	-275.2814636230469	1340.5400390625	-585.8840942382814	-253.9717254638672	1299.18408203125	-601.8074340820314	-272.7242126464844	1282.886962890625	-547.0133056640626	-262.5134887695313	1209.36328125	-523.0631713867189	-344.5332336425782	1192.171142578125	-523.3946533203126	-280.1996154785157	982.3249511718752	-681.5717163085939	-226.5430450439454	953.2276611328127	-643.0380859375001	-236.5304260253907	972.631286621094	-738.4138793945314	-245.1574859619141	1041.882568359375	-1035.497924804688	-239.1119384765626	1049.529907226563	-781.2410888671877	-410.9510498046876	1089.459838867188	-903.3198242187502	-424.5333862304689	1060.508422851563	-929.297546386719	-421.436248779297	1061.42431640625	-874.2531738281252	-325.5906372070313	729.6985473632814	-1112.2744140625	-303.3771057128907	647.9718017578126	-1116.22265625	-255.5191802978516	646.2762451171876	-1102.61474609375	-335.1728820800782	599.7498168945314	-1098.625244140625	-336.6179809570313	537.7438354492189	-1098.464721679688	-303.1006469726563	509.6195068359376	-985.9360961914065	-313.0936889648438	338.1905822753907	-1063.62939453125	-371.2609558105469	310.9988403320313	-1126.80126953125	-333.3200988769532	299.6049194335938	-1104.392211914063	-348.0286254882813	216.2784881591797	-1086.20947265625	-446.8644409179689	88.39501953125001	-1113.098266601563	-396.4223632812501	96.44384765625003	-1047.473510742188	-485.2735290527345	44.21078109741212	-1061.272338867188	-277.1599121093751	46.81761932373048	-1094.5263671875	-280.1314086914063	49.0272560119629	-1145.486450195313	-328.3338623046876	29.53355979919434	-1185.652099609375	-329.0184326171876	786.1946411132815	-715.7670898437501	-301.0710144042969	725.6627807617189	-706.4854736328126	-268.0952148437501	722.7537231445314	-707.7216186523439	-339.8290710449219	650.3516235351564	-724.8248901367189	-342.7362976074219	512.0816650390626	-726.9614868164064	-326.1604309082032	502.8921203613282	-845.494079589844	-310.4206542968751	332.6239318847657	-734.8781127929689	-395.4808044433595	260.7998962402344	-701.5240478515626	-348.4133300781251	259.8663330078126	-707.3621826171876	-338.0046997070313	206.9183959960938	-730.9380493164064	-415.5770568847657	92.70096588134767	-704.5872802734376	-374.1528015136719	91.82723999023439	-777.6560058593752	-463.0504150390626	41.2866439819336	-771.8626708984377	-251.5550689697266	47.8625831604004	-715.1198120117189	-264.9064636230469	53.22008895874025	-670.0202026367189	-316.2138366699219	34.28373718261719	-634.0545043945314	-247.0830688476563	1473.764282226563	-918.4936523437502	
